<svg xmlns="http://www.w3.org/2000/svg" fill="none" viewBox="0 0 40 24" id="icon"><path fill="#3E3D3C" d="M4.256 16.71h.24l-.225.932a.397.397 0 0 0 .019.312.285.285 0 0 0 .255.102.453.453 0 0 0 .304-.102.581.581 0 0 0 .169-.312l.226-.932h.24l-.226.954a.81.81 0 0 1-.267.464.763.763 0 0 1-.498.157c-.205 0-.346-.05-.422-.151-.077-.101-.09-.26-.044-.465l.23-.959Zm1.194 1.533.38-1.59.722.938c.02.026.038.053.057.083.02.03.038.065.061.103l.255-1.061h.226l-.382 1.588-.738-.954-.057-.08a.423.423 0 0 1-.045-.09l-.255 1.067H5.45v-.004Zm1.68 0 .365-1.533h.244l-.362 1.533H7.13Zm.59 0 .368-1.533h.833l-.053.21h-.59l-.089.38h.59l-.053.218h-.592l-.171.718h-.244v.007Zm1.104 0 .365-1.533h.243l-.364 1.533h-.244Zm.588 0 .365-1.533h.833l-.05.21h-.59l-.088.384h.59l-.054.217h-.592l-.118.494h.59l-.054.226-.832.002Zm1.113 0 .366-1.533h.327c.149-.006.298.006.445.034.075.02.144.058.2.11.07.07.117.161.133.26a.925.925 0 0 1-.018.36c-.032.129-.085.25-.156.362a.886.886 0 0 1-.51.369 1.67 1.67 0 0 1-.395.033h-.392v.005Zm.297-.229h.206c.086.003.173-.005.258-.023a.496.496 0 0 0 .163-.075.615.615 0 0 0 .172-.186.824.824 0 0 0 .102-.26.674.674 0 0 0 .02-.253.356.356 0 0 0-.084-.187.26.26 0 0 0-.134-.075 1.152 1.152 0 0 0-.266-.023h-.178l-.258 1.082Zm2.27-.461-.164.69h-.226l.364-1.533h.37c.079-.003.158.004.235.018a.23.23 0 0 1 .118.061c.04.039.067.09.076.144a.523.523 0 0 1-.008.199.612.612 0 0 1-.09.2.52.52 0 0 1-.144.146.502.502 0 0 1-.149.06 1.24 1.24 0 0 1-.243.02h-.14v-.005Zm.066-.203h.061a.616.616 0 0 0 .282-.047.237.237 0 0 0 .106-.16.164.164 0 0 0-.03-.17.427.427 0 0 0-.251-.05h-.06l-.107.427Zm1.523.893-.075-.395h-.594l-.267.395h-.255l1.104-1.59.34 1.59h-.253Zm-.524-.603h.414l-.069-.35a.53.53 0 0 1-.007-.076.675.675 0 0 1-.004-.094.762.762 0 0 1-.049.094.648.648 0 0 1-.046.08l-.24.346Zm1.131.603.167-.7-.303-.829h.254l.19.521a.51.51 0 0 0 .016.053c.007.023.011.045.019.069l.045-.069a.846.846 0 0 1 .046-.06l.444-.514h.244l-.711.825-.166.7h-.243l-.002.004Zm2.312-.757a.991.991 0 0 1 .011-.1c0-.036.005-.073.011-.11a.902.902 0 0 1-.118.213l-.586.818-.188-.832a.961.961 0 0 1-.027-.194c-.008.03-.02.064-.03.103a.825.825 0 0 1-.046.11l-.342.753h-.224l.737-1.593.21.967c.005.024.009.05.01.075.005.045.011.09.02.133.027-.045.06-.098.107-.167a.39.39 0 0 0 .026-.041l.658-.967-.024 1.6h-.224l.018-.768Zm.404.757.365-1.533h.83l-.048.213h-.59l-.088.384h.588l-.053.217h-.59l-.118.494h.59l-.054.226-.832-.001Zm1.106 0 .384-1.59.723.938c.019.026.038.053.057.083.02.03.038.065.061.103l.255-1.061h.224l-.381 1.588-.736-.954-.056-.08a.403.403 0 0 1-.046-.09l-.255 1.067h-.229v-.004Zm2.48-1.323-.316 1.32h-.243l.315-1.32h-.396l.05-.212h1.034l-.049.212h-.395Zm.255 1.014.216-.088a.207.207 0 0 0 .065.155.267.267 0 0 0 .177.053.286.286 0 0 0 .29-.225c.023-.088-.03-.17-.16-.239a.25.25 0 0 0-.042-.023.731.731 0 0 1-.274-.224.329.329 0 0 1-.022-.243.532.532 0 0 1 .197-.304.57.57 0 0 1 .356-.118.478.478 0 0 1 .263.064.253.253 0 0 1 .11.187l-.214.099a.228.228 0 0 0-.072-.107.188.188 0 0 0-.113-.034.264.264 0 0 0-.167.054.233.233 0 0 0-.089.14c-.023.089.042.178.189.259a.27.27 0 0 0 .026.015c.102.044.19.115.255.205a.34.34 0 0 1 .023.25.598.598 0 0 1-.217.347.63.63 0 0 1-.391.13.432.432 0 0 1-.294-.09.297.297 0 0 1-.112-.262Zm1.791.309.365-1.533h.243l-.365 1.533h-.243Zm.592 0 .38-1.59.724.932c.019.027.038.053.057.084.02.03.038.065.06.102l.256-1.06h.224l-.38 1.589-.737-.955-.057-.08a.396.396 0 0 1-.046-.089l-.254 1.067h-.227Zm2.476-1.323-.316 1.32h-.244l.316-1.32h-.396l.05-.212h1.034l-.049.212h-.395Zm.262 1.323.365-1.533h.837l-.05.213h-.59l-.088.384h.589l-.052.217h-.59l-.118.494h.588l-.053.226-.838-.001Zm1.502-.69-.164.684h-.228l.368-1.53h.34a.95.95 0 0 1 .225.018.241.241 0 0 1 .198.208.49.49 0 0 1-.007.195.558.558 0 0 1-.157.288.516.516 0 0 1-.285.127l.347.695h-.274l-.333-.685h-.03Zm.065-.188h.045a.548.548 0 0 0 .267-.046.244.244 0 0 0 .102-.163c.02-.084.012-.144-.026-.178a.377.377 0 0 0-.24-.053h-.045l-.103.44Zm.711.878.364-1.533h.833l-.041.21h-.59l-.088.38h.589l-.053.218h-.596l-.172.718h-.246v.007Zm2.011 0-.076-.395h-.594l-.266.395h-.255l1.103-1.59.342 1.594-.254-.004Zm-.528-.603h.415l-.07-.35a.78.78 0 0 1-.008-.17.632.632 0 0 1-.05.094.653.653 0 0 1-.044.08l-.243.346Zm2.364-.557a.557.557 0 0 0-.42-.179.67.67 0 0 0-.436.16.757.757 0 0 0-.254.417.496.496 0 0 0 .053.41.38.38 0 0 0 .34.16c.09.001.18-.016.263-.05.096-.035.185-.083.267-.143l-.072.282a.848.848 0 0 1-.24.107.944.944 0 0 1-.257.033.753.753 0 0 1-.305-.057.524.524 0 0 1-.216-.17.536.536 0 0 1-.107-.26.778.778 0 0 1 .019-.318 1.033 1.033 0 0 1 .365-.574.96.96 0 0 1 .62-.229.73.73 0 0 1 .243.038.642.642 0 0 1 .201.121l-.064.252Zm.023 1.16.365-1.533h.832l-.05.213h-.59l-.088.384h.59l-.054.217h-.59l-.119.494H34l-.052.226-.834-.001Z"/><path fill="#71716F" d="M28.689 15.376h-1.667L29.338 7h1.67l-2.32 8.376Zm-.867-8.112c-.114-.161-.292-.242-.534-.242h-9.174l-.452 1.643h8.342l-.487 1.753h-8.342l-1.384 5h1.67l.927-3.355h7.502c.242-.002.475-.086.662-.239a1.12 1.12 0 0 0 .407-.593l.927-3.354c.073-.254.05-.456-.064-.613ZM14.817 14.85a.77.77 0 0 1-.738.564H5.477a.6.6 0 0 1-.525-.24.656.656 0 0 1-.073-.592l2.098-7.556h1.67L6.772 13.78h6.677l1.875-6.755h1.669l-2.176 7.825Z"/><path fill="#078142" d="M33.89 7.015 36 11.213l-4.438 4.197 2.328-8.395Z"/><path fill="#EA7726" d="m32.407 7.015 2.11 4.198-4.44 4.197 2.33-8.395Z"/></svg>