<svg xmlns="http://www.w3.org/2000/svg" fill="none" viewBox="0 0 80 48" id="icon"><path fill="#008C44" d="M68.39 16.805 72 23.997l-7.59 7.196 3.98-14.388Z"/><path fill="#F47920" d="m65.889 16.805 3.605 7.192-7.585 7.196 3.98-14.388Z"/><path fill="#1B3281" d="m8 28.576 3.6-13.011h5.755c1.8 0 3 .286 3.612.874.607.584.724 1.537.358 2.877-.221.79-.557 1.452-1.02 1.975-.458.524-1.062.939-1.806 1.244.631.152 1.033.454 1.213.908.179.453.158 1.114-.06 1.981l-.437 1.818-.001.049c-.127.509-.09.781.117.803l-.133.482h-3.894c.014-.306.038-.58.064-.81.028-.235.063-.417.097-.542l.363-1.3c.183-.675.195-1.147.025-1.418-.171-.279-.555-.416-1.16-.416h-1.636l-1.248 4.486H8Zm5.866-7.418h1.753c.614 0 1.067-.088 1.346-.27.281-.184.49-.493.612-.942.126-.456.095-.774-.086-.954-.182-.184-.616-.273-1.298-.273H14.54l-.675 2.439Zm18.144-2.183-2.653 9.6h-3.225l.396-1.406c-.567.56-1.148.984-1.734 1.256a4.227 4.227 0 0 1-1.839.412c-.533 0-.991-.097-1.36-.29a1.863 1.863 0 0 1-.838-.869c-.166-.337-.238-.753-.21-1.25.03-.49.202-1.315.522-2.47l1.375-4.983h3.528l-1.373 4.959c-.2.726-.248 1.236-.15 1.514.101.28.373.424.815.424a1.48 1.48 0 0 0 1.126-.49c.313-.327.555-.814.737-1.462l1.361-4.945h3.523Zm-1.279 9.601 3.596-13.011h4.948c1.091 0 1.936.065 2.538.206.602.136 1.073.357 1.424.668.439.407.708.911.818 1.515.105.605.043 1.309-.185 2.136-.403 1.454-1.11 2.569-2.116 3.348-1.01.768-2.258 1.154-3.749 1.154H35.69l-1.1 3.984h-3.859Zm5.835-7.161h1.244c.805 0 1.37-.1 1.701-.292.321-.195.549-.541.688-1.033.139-.5.103-.848-.107-1.043-.202-.194-.718-.292-1.545-.292h-1.241l-.74 2.66Zm11.454 7.161.036-.912c-.57.427-1.145.75-1.725.952a5.46 5.46 0 0 1-1.848.31c-1 0-1.696-.272-2.1-.8-.397-.528-.463-1.286-.191-2.253.26-.955.722-1.658 1.39-2.107.662-.455 1.77-.78 3.324-.988.197-.033.461-.058.792-.098 1.148-.134 1.793-.44 1.932-.942.072-.274.028-.477-.141-.6-.164-.13-.47-.193-.912-.193-.367 0-.662.076-.904.235-.242.16-.422.394-.544.723h-3.44c.31-1.08.945-1.897 1.898-2.444.95-.555 2.2-.822 3.75-.822.73 0 1.383.068 1.96.216.578.143 1 .345 1.274.59.337.307.537.656.594 1.042.066.385-.006.937-.207 1.659l-1.48 5.352a1.071 1.071 0 0 0-.03.474.57.57 0 0 0 .194.335l-.08.27H48.02Zm.857-4.287c-.375.15-.861.296-1.466.454-.95.256-1.485.597-1.6 1.02-.08.271-.049.48.084.639.13.151.357.227.676.227.586 0 1.056-.148 1.406-.442.352-.297.615-.763.798-1.406.032-.137.06-.235.079-.309l.023-.183Zm2.713 8.071.782-2.843h1.01c.337 0 .602-.066.79-.188.19-.127.32-.34.396-.627.037-.126.06-.26.076-.41.01-.16.01-.33 0-.526l-.54-8.791h3.572L57.62 24.8l3.117-5.825h3.321l-5.51 9.555c-.626 1.067-1.08 1.801-1.37 2.202-.284.395-.554.702-.817.91-.34.288-.72.492-1.13.611-.41.122-1.036.182-1.876.182-.242 0-.52-.005-.822-.02a23.67 23.67 0 0 1-.944-.056Z"/></svg>